<svg xmlns="http://www.w3.org/2000/svg"
 version="1.1" 
xmlnsXlink="http://www.w3.org/1999/xlink" 
xmlnsSvgjs="http://svgjs.dev/svgjs" 
width="2000" height="525" viewBox="0 0 2000 525"
>
<g transform="matrix(1,0,0,1,-1.2121212121212466,-0.4494840687953001)">
<svg viewBox="0 0 396 104" 
data-background-color="#ffffff"
preserveAspectRatio="xMidYMid meet" 
height="525"
 width="2000" 
 xmlns="http://www.w3.org/2000/svg" 
 xmlnsXlink="http://www.w3.org/1999/xlink">
 <g id="tight-bounds" transform="matrix(1,0,0,1,0.2400000000000091,0.08904065362801816)">
 <svg viewBox="0 0 395.52 103.82191869274398" height="103.82191869274398" width="395.52">
 <g>
 <svg viewBox="0 0 571.0033101564935 149.8853641797005" height="103.82191869274398" width="395.52">
 <g transform="matrix(1,0,0,1,175.48331015649356,20.7149815906822)"><svg viewBox="0 0 395.52 108.4554009983361" height="108.4554009983361" width="395.52">
 <g id="textblocktransform">
 <svg viewBox="0 0 395.52 108.4554009983361" height="108.4554009983361" width="395.52" id="textblock">
 <g>
 <svg viewBox="0 0 395.52 108.4554009983361" height="108.4554009983361" width="395.52">
 <g transform="matrix(1,0,0,1,0,0)">
 <svg width="395.52" viewBox="1.54 -39.79 146.72 40.23" height="108.4554009983361" data-palette-color="#4f5b92">
 <path d="M14.04-8.59L17.94-8.59 17.94 0 1.54 0 1.54-8.59 6.25-8.59 6.25-30.25 1.54-30.25 1.54-38.84 22.49-38.84 30.03-20.14 37.5-38.84 57.03-38.84 57.03-30.25 52.34-30.25 52.34-8.59 57.03-8.59 57.03 0 36.69 0 36.69-8.59 39.84-8.59 39.84-23.1 31.25 0 24.19 0 14.04-23.66 14.04-8.59ZM74.51 0.44L74.51 0.44Q70.07 0.44 66.77-1.2L66.77-1.2Q63.43-2.81 61.57-5.93 59.71-9.06 59.71-13.35L59.71-13.35Q59.71-17.63 61.57-20.61L61.57-20.61Q63.43-23.61 66.77-25.13 70.11-26.66 74.51-26.66L74.51-26.66Q79.03-26.66 82.36-25.1 85.69-23.54 87.52-20.57 89.35-17.6 89.35-13.35L89.35-13.35Q89.35-9.06 87.52-5.93L87.52-5.93Q85.67-2.81 82.31-1.18 78.95 0.44 74.51 0.44ZM74.51-6.69L74.51-6.69Q76.12-6.69 76.9-8.28L76.9-8.28Q77.66-9.81 77.66-13.35L77.66-13.35Q77.66-16.6 76.91-18.05 76.17-19.51 74.51-19.51L74.51-19.51Q72.92-19.51 72.17-18.05 71.41-16.6 71.41-13.35L71.41-13.35Q71.41-9.89 72.19-8.28L72.19-8.28Q72.97-6.69 74.51-6.69ZM104.32 0.44L104.32 0.44Q100.78 0.44 98.19-1.44L98.19-1.44Q95.62-3.32 94.29-6.48 92.96-9.64 92.96-13.45L92.96-13.45Q92.96-16.89 94.33-19.97L94.33-19.97Q95.7-23 98.2-24.83 100.7-26.66 104.12-26.66L104.12-26.66Q106.61-26.66 108.39-25.85 110.18-25.05 111.71-23.46L111.71-23.46 111.71-29.86 107.81-29.86 107.81-36.5 123.46-38.11 123.46-7.35 126.56-7.35 126.56 0 111.52 0 111.52-3.15Q110.32-1.54 108.47-0.57 106.61 0.39 104.32 0.44ZM108.22-6.69L108.22-6.69Q109.37-6.69 110.3-7.24 111.23-7.79 111.71-8.54L111.71-8.54 111.71-17.8Q111.15-18.46 110.21-18.98 109.27-19.51 108.22-19.51L108.22-19.51Q106.32-19.51 105.12-17.96 103.93-16.41 103.93-13.45L103.93-13.45Q103.93-10.45 105.02-8.57 106.12-6.69 108.22-6.69ZM139.27-28.71L139.27-28.71Q136.22-28.71 134.25-30.15 132.27-31.59 132.27-34.3L132.27-34.3Q132.27-37.01 134.25-38.4 136.22-39.79 139.32-39.79L139.32-39.79Q142.42-39.79 144.37-38.43 146.31-37.06 146.31-34.3L146.31-34.3Q146.31-31.59 144.32-30.15 142.33-28.71 139.27-28.71ZM145.11-7.35L148.26-7.35 148.26 0 130.27 0 130.27-7.35 133.42-7.35 133.42-18.6 130.27-18.6 130.27-24.61 145.11-26.15 145.11-7.35Z" 
 opacity="1" transform="matrix(1,0,0,1,0,0)" fill="#000000" class="wordmark-text-0" data-fill-palette-color="primary" id="text-0"></path>
 </svg></g></svg></g></svg></g></svg></g><g>
 <svg viewBox="0 0 149.87959291041037 149.8853641797005" height="149.8853641797005" width="149.87959291041037"><g>
 <svg xmlns="http://www.w3.org/2000/svg" xmlnsXlink="http://www.w3.org/1999/xlink" version="1.1" x="0" y="0" viewBox="5.001336002806925 4.999606372639138 89.99732799438615 90.00079343491186" enable-background="new 0 0 100 100" 
 xmlSpace="preserve" height="149.8853641797005"
  width="149.87959291041037" class="icon-icon-0" data-fill-palette-color="accent" id="icon-0">
  <path d="M77.388 37.904c0 0-0.01 0.044-0.024 0.108-0.03-0.069-0.064-0.137-0.095-0.205 4.284-4.871 17.64 0.232 17.64 0.232C89.446 24.834 67.67 25.831 67.67 25.831s0.015 0.048 0.037 0.117c-0.063-0.047-0.125-0.095-0.189-0.141 1.272-6.362 15.393-8.62 15.393-8.62-11.333-8.704-29.693 3.047-29.693 3.047s0.035 0.032 0.084 0.077c-0.075-0.008-0.152-0.014-0.227-0.022-2.079-6.146 9.021-15.162 9.021-15.162C47.929 3.256 37.904 22.613 37.904 22.613s0.044 0.01 0.108 0.024c-0.07 0.031-0.142 0.058-0.212 0.089-4.861-4.29 0.239-17.635 0.239-17.635C24.834 10.554 25.831 32.33 25.831 32.33s0.048-0.015 0.119-0.037c-0.047 0.063-0.093 0.126-0.139 0.19-6.364-1.268-8.623-15.394-8.623-15.394-8.704 11.333 3.047 29.693 3.047 29.693s0.032-0.035 0.079-0.086c-0.009 0.078-0.021 0.154-0.029 0.232-6.146 2.069-15.156-9.024-15.156-9.024C3.256 52.071 22.612 62.096 22.612 62.096s0.01-0.043 0.023-0.104c0.03 0.069 0.063 0.136 0.094 0.205-4.287 4.867-17.638-0.236-17.638-0.236C10.554 75.166 32.33 74.169 32.33 74.169s-0.014-0.046-0.035-0.111c0.063 0.046 0.124 0.094 0.187 0.139-1.279 6.358-15.393 8.616-15.393 8.616 11.333 8.704 29.693-3.047 29.693-3.047s-0.033-0.031-0.081-0.075c0.075 0.008 0.151 0.014 0.226 0.022 2.075 6.146-9.022 15.16-9.022 15.16 14.167 1.871 24.192-17.485 24.192-17.485s-0.044-0.01-0.107-0.024c0.07-0.031 0.142-0.058 0.212-0.089 4.859 4.291-0.24 17.635-0.24 17.635C75.166 89.446 74.169 67.67 74.169 67.67s-0.049 0.015-0.12 0.037c0.047-0.063 0.094-0.127 0.14-0.191 6.365 1.269 8.623 15.395 8.623 15.395 8.704-11.333-3.047-29.693-3.047-29.693s-0.033 0.036-0.081 0.088c0.009-0.078 0.021-0.155 0.029-0.233 6.146-2.073 15.158 9.022 15.158 9.022C96.744 47.929 77.388 37.904 77.388 37.904zM39.488 50.001c0-5.803 4.707-10.51 10.51-10.51 5.808 0 10.51 4.707 10.51 10.51 0 5.803-4.702 10.511-10.51 10.511C44.195 60.511 39.488 55.804 39.488 50.001z" fill="#000000" data-fill-palette-color="accent">
  </path></svg></g></svg></g></svg></g><defs></defs></svg>
  <rect width="395.52" height="103.82191869274398" fill="none" stroke="none" visibility="hidden">
  </rect></g></svg></g></svg>