<svg xmlns="http://www.w3.org/2000/svg" version="1.1" xmlns:xlink="http://www.w3.org/1999/xlink" xmlns:svgjs="http://svgjs.dev/svgjs" width="128" height="128" viewBox="0 0 128 128"><g transform="matrix(0.8046875,0,0,0.8046875,12.758759606818117,12.760752631578946)"><svg viewBox="0 0 95 95" data-background-color="#ffffff" preserveAspectRatio="xMidYMid meet" height="128" width="128" xmlns="http://www.w3.org/2000/svg" xmlns:xlink="http://www.w3.org/1999/xlink"><g id="tight-bounds" transform="matrix(1,0,0,1,-0.2386617732788494,-0.24049999999999727)"><svg viewBox="0 0 95.4773235465577 95.48100000000001" height="95.48100000000001" width="95.4773235465577"><g><svg viewBox="0 0 95.4773235465577 95.48100000000001" height="95.48100000000001" width="95.4773235465577"><g><svg viewBox="0 0 95.4773235465577 95.48100000000001" height="95.48100000000001" width="95.4773235465577"><g id="textblocktransform"><svg viewBox="0 0 95.4773235465577 95.48100000000001" height="95.48100000000001" width="95.4773235465577" id="textblock"><g><svg viewBox="0 0 95.4773235465577 95.48100000000001" height="95.48100000000001" width="95.4773235465577"><g><svg viewBox="0 0 95.4773235465577 95.48100000000001" height="95.48100000000001" width="95.4773235465577"><g><svg xmlns="http://www.w3.org/2000/svg" xmlns:xlink="http://www.w3.org/1999/xlink" version="1.1" x="0" y="0" viewBox="5.001336002806925 4.999606372639138 89.99732799438615 90.00079343491186" enable-background="new 0 0 100 100" xml:space="preserve" height="95.48100000000001" width="95.4773235465577" class="icon-icon-0" data-fill-palette-color="accent" id="icon-0"><path d="M77.388 37.904c0 0-0.01 0.044-0.024 0.108-0.03-0.069-0.064-0.137-0.095-0.205 4.284-4.871 17.64 0.232 17.64 0.232C89.446 24.834 67.67 25.831 67.67 25.831s0.015 0.048 0.037 0.117c-0.063-0.047-0.125-0.095-0.189-0.141 1.272-6.362 15.393-8.62 15.393-8.62-11.333-8.704-29.693 3.047-29.693 3.047s0.035 0.032 0.084 0.077c-0.075-0.008-0.152-0.014-0.227-0.022-2.079-6.146 9.021-15.162 9.021-15.162C47.929 3.256 37.904 22.613 37.904 22.613s0.044 0.01 0.108 0.024c-0.07 0.031-0.142 0.058-0.212 0.089-4.861-4.29 0.239-17.635 0.239-17.635C24.834 10.554 25.831 32.33 25.831 32.33s0.048-0.015 0.119-0.037c-0.047 0.063-0.093 0.126-0.139 0.19-6.364-1.268-8.623-15.394-8.623-15.394-8.704 11.333 3.047 29.693 3.047 29.693s0.032-0.035 0.079-0.086c-0.009 0.078-0.021 0.154-0.029 0.232-6.146 2.069-15.156-9.024-15.156-9.024C3.256 52.071 22.612 62.096 22.612 62.096s0.01-0.043 0.023-0.104c0.03 0.069 0.063 0.136 0.094 0.205-4.287 4.867-17.638-0.236-17.638-0.236C10.554 75.166 32.33 74.169 32.33 74.169s-0.014-0.046-0.035-0.111c0.063 0.046 0.124 0.094 0.187 0.139-1.279 6.358-15.393 8.616-15.393 8.616 11.333 8.704 29.693-3.047 29.693-3.047s-0.033-0.031-0.081-0.075c0.075 0.008 0.151 0.014 0.226 0.022 2.075 6.146-9.022 15.16-9.022 15.16 14.167 1.871 24.192-17.485 24.192-17.485s-0.044-0.01-0.107-0.024c0.07-0.031 0.142-0.058 0.212-0.089 4.859 4.291-0.24 17.635-0.24 17.635C75.166 89.446 74.169 67.67 74.169 67.67s-0.049 0.015-0.12 0.037c0.047-0.063 0.094-0.127 0.14-0.191 6.365 1.269 8.623 15.395 8.623 15.395 8.704-11.333-3.047-29.693-3.047-29.693s-0.033 0.036-0.081 0.088c0.009-0.078 0.021-0.155 0.029-0.233 6.146-2.073 15.158 9.022 15.158 9.022C96.744 47.929 77.388 37.904 77.388 37.904zM39.488 50.001c0-5.803 4.707-10.51 10.51-10.51 5.808 0 10.51 4.707 10.51 10.51 0 5.803-4.702 10.511-10.51 10.511C44.195 60.511 39.488 55.804 39.488 50.001z" fill="#000000" data-fill-palette-color="accent"></path></svg></g></svg></g></svg></g></svg></g></svg></g></svg></g><defs></defs></svg><rect width="95.4773235465577" height="95.48100000000001" fill="none" stroke="none" visibility="hidden"></rect></g></svg></g></svg>